<svg width="64px" height="64px" viewBox="0 0 64 64" xmlns="http://www.w3.org/2000/svg">
<polygon fill="#828385" points="32,31.9 57,17.8 52.5,15.8 11.5,15.8 7,17.8 "/>
<polygon fill="#616264" points="32,25.2 32,26.9 5.5,12.6 5.3,11 "/>
<polygon fill="#616264" points="7,17.8 7.5,22.7 27.7,56.5 32,59.4 32,31.9 "/>
<polygon fill="#828385" points="1.5,19.2 0,19.8 25.8,35.1 27.4,34.3 "/>
<polygon fill="#4B4B4D" points="25.8,35.1 26.4,64 27.8,63.1 27.4,34.3 "/>
<polygon fill="#8EA9D3" points="0,19.8 3.3,47.4 26.4,64 25.8,35.1 "/>
<polygon fill="#5C8BC3" points="9.9,43.5 8.2,24.7 25.8,35.1 26.2,54.7 "/>
<polygon fill="#8EA9D3" points="32,25.2 58.7,11 32,0 5.3,11 "/>
<polygon fill="#6790C6" points="32,7.3 50.4,15.4 32,25.2 13.6,15.4 "/>
<polygon fill="#4B4B4D" points="32,25.2 32,26.9 58.5,12.6 58.7,11 "/>
<polygon fill="#4B4B4D" points="57,17.8 56.5,22.7 36.3,56.5 32,59.4 32,31.9 "/>
<polygon fill="#828385" points="62.5,19.2 64,19.8 38.1,35.1 36.6,34.3 "/>
<polygon fill="#616264" points="38.1,35.1 37.6,64 36.2,63.1 36.6,34.3 "/>
<polygon fill="#8EA9D3" points="64,19.8 60.7,47.4 37.6,64 38.1,35.1 "/>
<polygon fill="#5185C0" points="54.1,43.5 55.8,24.7 38.1,35.1 37.8,54.7 "/>
</svg>
