<svg width="152" height="152" viewBox="0 0 152 152" fill="none" xmlns="http://www.w3.org/2000/svg">
<circle cx="76" cy="76" r="76" fill="white"/>
<g clip-path="url(#clip0_180_172)">
<path d="M75.9981 62.9538L95.7442 51.3615L92.2027 49.7236H59.7975L56.252 51.3615L75.9981 62.9538Z" fill="#828385"/>
<path d="M75.998 57.4295V58.8413L55.0423 47.0468L54.9233 45.7539L75.998 57.4295Z" fill="#616264"/>
<path d="M56.252 51.3613L56.6049 55.3669L72.5716 83.2431L75.9981 85.6742V62.9536L56.252 51.3613Z" fill="#616264"/>
<path d="M51.8934 52.4639L50.7036 53.0032L71.1358 65.6187L72.3494 64.9366L51.8934 52.4639Z" fill="#828385"/>
<path d="M71.1357 65.6196L71.5839 89.4625L72.6467 88.7249L72.3493 64.9375L71.1357 65.6196Z" fill="#4B4B4D"/>
<path d="M50.7036 53.0039L53.2894 75.7562L71.584 89.4623L71.1358 65.6194L50.7036 53.0039Z" fill="#8EA9D3"/>
<path d="M58.5243 72.579L57.168 56.9971L71.1358 65.6189L71.4372 81.76L58.5243 72.579Z" fill="#5C8BC3"/>
<path d="M75.998 57.4415L97.0767 45.754L75.998 36.6523L54.9233 45.754L75.998 57.4415Z" fill="#8EA9D3"/>
<path d="M75.9977 42.6807L90.5207 49.3751L75.9977 57.4298L61.4746 49.3751L75.9977 42.6807Z" fill="#6790C6"/>
<path d="M75.998 57.4295V58.8413L96.9577 47.0468L97.0767 45.7539L75.998 57.4295Z" fill="#4B4B4D"/>
<path d="M95.7442 51.3613L95.3952 55.3669L79.4246 83.2431L75.998 85.6742V62.9536L95.7442 51.3613Z" fill="#4B4B4D"/>
<path d="M100.103 52.4639L101.292 53.0032L80.86 65.6187L79.6465 64.9366L100.103 52.4639Z" fill="#828385"/>
<path d="M80.8601 65.6196L80.412 89.4625L79.3491 88.7249L79.6466 64.9375L80.8601 65.6196Z" fill="#616264"/>
<path d="M101.292 53.0039L98.7067 75.7562L80.4121 89.4623L80.8603 65.6194L101.292 53.0039Z" fill="#8EA9D3"/>
<path d="M93.4755 72.579L94.8278 56.9971L80.86 65.6189L80.5586 81.76L93.4755 72.579Z" fill="#5185C0"/>
<path d="M108.772 106.52H110.791L115.348 115.348H112.782C112.54 114.84 112.333 114.368 112.096 113.932C111.992 113.749 111.786 113.642 111.481 113.642H106.071C105.762 113.642 105.56 113.753 105.453 113.932C105.421 114.043 105.179 114.515 104.771 115.348H102.236L106.757 106.52H108.78H108.772ZM108.772 107.9H108.463C108.36 107.9 108.225 108.046 108.122 108.3L106.65 111.461C106.547 111.608 106.516 111.715 106.516 111.786C106.516 112.04 106.65 112.151 106.96 112.151H110.624C110.898 112.151 111.037 112.044 111.037 111.826C111.037 111.719 111.005 111.608 110.934 111.461L109.426 108.3C109.323 108.046 109.189 107.9 109.085 107.9H108.776H108.772Z" fill="#616264"/>
<path d="M101.919 115.348H98.3217L94.4787 111.862C94.2685 111.679 93.983 111.568 93.7014 111.568C93.4199 111.568 93.3881 111.862 93.3881 112.476V115.348H90.957V106.52H93.3881V109.173C93.3881 109.791 93.3723 110.081 93.63 110.081C93.8878 110.081 94.0266 110.093 94.1615 110.045C94.332 109.986 94.5144 109.898 94.6889 109.756L98.3217 106.52H101.32L97.1597 110.188C96.9138 110.442 96.771 110.66 96.771 110.842C96.771 111.06 96.9098 111.279 97.2271 111.532L101.919 115.348Z" fill="#616264"/>
<path d="M75.9981 115.348H79.964C80.4716 115.348 80.8405 115.126 81.1141 114.713C82.1968 113.095 85.306 108.59 85.306 108.59C85.4845 108.336 85.6233 108.225 85.6947 108.225H86.012C86.2261 108.225 86.2935 108.332 86.2935 108.59V115.348H88.6532V106.52H83.9299L79.3453 113.277C79.1668 113.531 79.028 113.642 78.921 113.642H78.6751C78.4649 113.642 78.3578 113.531 78.3578 113.277V106.52H75.9941V115.348H75.9981Z" fill="#616264"/>
<path d="M74.4475 108.007H67.6064C67.2891 108.007 67.0789 108.114 66.9718 108.296C66.9004 108.443 66.829 108.661 66.8647 108.986V115.344H64.3979V106.516H74.4475V108.007Z" fill="#616264"/>
<path d="M56.458 106.52H60.7609C61.1496 106.52 61.4669 106.666 61.7127 106.92C61.9943 107.21 62.1014 107.539 62.1014 107.935V113.932C62.1014 114.332 61.9943 114.658 61.7127 114.911C61.4669 115.201 61.1496 115.348 60.7609 115.348H52.155C51.7663 115.348 51.4133 115.201 51.1675 114.947C50.9216 114.658 50.7788 114.328 50.7788 113.928V107.931C50.7788 107.531 50.9216 107.206 51.1675 106.916C51.4133 106.662 51.7663 106.516 52.155 106.516H56.458V106.52ZM56.458 108.007H54.13C53.5311 108.007 53.2496 108.296 53.2496 108.915V112.948C53.2496 113.527 53.5311 113.821 54.13 113.821H58.7502C59.0318 113.821 59.242 113.749 59.4205 113.603C59.5593 113.42 59.6664 113.202 59.6664 112.948V108.915C59.6664 108.296 59.3491 108.007 58.7502 108.007H56.458Z" fill="#616264"/>
<path d="M49.7676 115.348L45.2187 106.738C45.1473 106.591 45.0442 106.52 44.9014 106.52H41.5503C41.4075 106.52 41.3044 106.591 41.1973 106.738C41.1259 106.849 39.611 109.716 36.6484 115.348H39.2223C39.258 115.241 40.3843 112.952 42.6409 108.479C42.744 108.225 42.8868 108.078 42.9939 108.078H43.4499C43.557 108.078 43.6601 108.225 43.8029 108.479L47.1541 115.348H49.7636H49.7676Z" fill="#616264"/>
<path d="M104.171 96.2354H108.474C108.863 96.2354 109.18 96.3822 109.462 96.636C109.708 96.9255 109.85 97.2546 109.85 97.6512V103.648C109.85 104.048 109.708 104.373 109.462 104.627C109.18 104.917 108.863 105.063 108.474 105.063H99.8683C99.4796 105.063 99.1624 104.917 98.9165 104.663C98.6349 104.373 98.5278 104.044 98.5278 103.644V97.6473C98.5278 97.2467 98.6349 96.9215 98.9165 96.632C99.1624 96.3782 99.4796 96.2314 99.8683 96.2314H104.171V96.2354ZM104.171 97.7226H101.843C101.244 97.7226 100.963 98.0121 100.963 98.6308V102.664C100.963 103.247 101.244 103.537 101.843 103.537H106.499C106.745 103.537 106.959 103.465 107.134 103.318C107.308 103.136 107.38 102.918 107.38 102.664V98.6308C107.38 98.0121 107.098 97.7226 106.499 97.7226H104.171Z" fill="#5C8BC3"/>
<path d="M96.8425 105.063H94.5502V98.3055C94.5502 98.0517 94.4431 97.905 94.2686 97.905H93.9514C93.8443 97.905 93.7055 98.0517 93.5627 98.3055L89.7554 104.25C89.6841 104.397 89.581 104.469 89.4382 104.469H87.9192C87.7447 104.469 87.6377 104.397 87.5663 104.25L83.7551 98.3055C83.5806 98.0517 83.4735 97.905 83.3664 97.905H83.0491C82.8389 97.905 82.7676 98.0517 82.7676 98.3055V105.063H80.3008V96.2354H84.8497L88.1651 101.538C88.2722 101.792 88.411 101.903 88.6609 101.903C88.9107 101.903 89.0852 101.796 89.1923 101.538L92.4721 96.2354H96.8464V105.063H96.8425Z" fill="#5C8BC3"/>
<path d="M72.976 100.015H75.4784C75.9742 100.015 76.2201 99.761 76.2201 99.2891V98.4523C76.2201 97.9803 75.9742 97.7265 75.4784 97.7265H70.1205C69.8746 97.7265 69.7676 97.8733 69.7676 98.1271V99.6143C69.7676 99.8681 69.8746 100.015 70.1205 100.015H72.976ZM72.976 101.502H70.1205C69.8746 101.502 69.7676 101.609 69.7676 101.867V105.063H67.3008V96.2354H77.2433C77.6319 96.2354 77.9849 96.3821 78.2308 96.6359C78.4766 96.9254 78.6194 97.2546 78.6194 97.6908V100.09C78.6194 100.491 78.4766 100.816 78.2308 101.105C77.9849 101.359 77.6319 101.506 77.2433 101.506H72.976V101.502Z" fill="#5C8BC3"/>
<path d="M65.0481 105.063H54.9985V96.2354H65.0481V97.7226H58.2069C57.8897 97.7226 57.6795 97.8296 57.5724 98.0121C57.501 98.1588 57.501 99.3922 57.5724 99.5389C57.6795 99.7571 57.8897 99.8681 58.2069 99.8681H64.4492V101.359H58.2069C57.8897 101.359 57.6795 101.466 57.5724 101.649C57.501 101.796 57.4653 103.065 57.5367 103.211C57.6438 103.429 57.854 103.541 58.2069 103.541H65.0481V105.067V105.063Z" fill="#5C8BC3"/>
<path d="M52.7418 97.8336H49.1289C48.5657 97.8336 48.3198 98.0517 48.3198 98.5237V105.063H45.9562V98.5237C45.9562 98.0517 45.7103 97.8336 45.2145 97.8336H41.5659V96.2354H52.7457V97.8336H52.7418Z" fill="#5C8BC3"/>
</g>
<defs>
<clipPath id="clip0_180_172">
<rect width="78.695" height="78.695" fill="white" transform="translate(36.6523 36.6523)"/>
</clipPath>
</defs>
</svg>
