<svg width="289" height="289" viewBox="0 0 289 289" fill="none" xmlns="http://www.w3.org/2000/svg">
<circle cx="144.008" cy="144.008" r="144.008" fill="#006CE0"/>
<circle cx="143.5" cy="143.5" r="109.5" fill="white"/>
<g clip-path="url(#clip0_303_532)">
<path d="M143.496 120.788L177.872 100.608L171.706 97.7562H115.292L109.12 100.608L143.496 120.788Z" fill="#828385"/>
<path d="M143.496 111.171V113.628L107.015 93.0959L106.808 90.8452L143.496 111.171Z" fill="#616264"/>
<path d="M109.12 100.608L109.735 107.581L137.531 156.11L143.496 160.342V120.788L109.12 100.608Z" fill="#616264"/>
<path d="M101.533 102.527L99.4619 103.466L135.032 125.428L137.145 124.241L101.533 102.527Z" fill="#828385"/>
<path d="M135.032 125.428L135.812 166.936L137.663 165.652L137.145 124.241L135.032 125.428Z" fill="#4B4B4D"/>
<path d="M99.4619 103.466L103.963 143.075L135.812 166.936L135.032 125.428L99.4619 103.466Z" fill="#8EA9D3"/>
<path d="M113.077 137.545L110.716 110.419L135.032 125.428L135.557 153.528L113.077 137.545Z" fill="#5C8BC3"/>
<path d="M143.496 111.191L180.192 90.845L143.496 75L106.808 90.845L143.496 111.191Z" fill="#8EA9D3"/>
<path d="M143.496 85.4944L168.779 97.1486L143.496 111.171L118.213 97.1486L143.496 85.4944Z" fill="#6790C6"/>
<path d="M143.496 111.171V113.628L179.984 93.0959L180.191 90.8452L143.496 111.171Z" fill="#4B4B4D"/>
<path d="M177.872 100.608L177.264 107.581L149.461 156.11L143.496 160.342V120.788L177.872 100.608Z" fill="#4B4B4D"/>
<path d="M185.46 102.527L187.531 103.466L151.961 125.428L149.849 124.241L185.46 102.527Z" fill="#828385"/>
<path d="M151.962 125.428L151.181 166.936L149.331 165.652L149.849 124.241L151.962 125.428Z" fill="#616264"/>
<path d="M187.531 103.466L183.029 143.075L151.181 166.936L151.961 125.428L187.531 103.466Z" fill="#8EA9D3"/>
<path d="M173.923 137.545L176.278 110.419L151.961 125.428L151.437 153.528L173.923 137.545Z" fill="#5185C0"/>
<path d="M200.553 196.631H204.067L212 212H207.533C207.112 211.116 206.753 210.294 206.338 209.535C206.159 209.217 205.8 209.031 205.268 209.031H195.851C195.313 209.031 194.96 209.224 194.774 209.535C194.719 209.728 194.298 210.55 193.587 212H189.175L197.045 196.631H200.567H200.553ZM200.553 199.034H200.014C199.835 199.034 199.6 199.289 199.42 199.731L196.859 205.234C196.68 205.489 196.624 205.676 196.624 205.8C196.624 206.242 196.859 206.435 197.398 206.435H203.777C204.253 206.435 204.495 206.249 204.495 205.869C204.495 205.683 204.44 205.489 204.315 205.234L201.692 199.731C201.512 199.289 201.278 199.034 201.098 199.034H200.56H200.553Z" fill="#616264"/>
<path d="M188.622 212H182.36L175.67 205.931C175.304 205.614 174.807 205.42 174.317 205.42C173.827 205.42 173.771 205.931 173.771 207.001V212H169.539V196.631H173.771V201.25C173.771 202.327 173.744 202.831 174.192 202.831C174.641 202.831 174.883 202.852 175.118 202.769C175.414 202.666 175.732 202.514 176.036 202.265L182.36 196.631H187.58L180.337 203.018C179.909 203.459 179.661 203.839 179.661 204.157C179.661 204.537 179.902 204.916 180.455 205.358L188.622 212Z" fill="#616264"/>
<path d="M143.496 212H150.4C151.284 212 151.926 211.613 152.403 210.895C154.287 208.078 159.7 200.235 159.7 200.235C160.011 199.793 160.253 199.6 160.377 199.6H160.929C161.302 199.6 161.419 199.786 161.419 200.235V212H165.527V196.631H157.304L149.323 208.396C149.013 208.838 148.771 209.031 148.585 209.031H148.156C147.791 209.031 147.604 208.838 147.604 208.396V196.631H143.489V212H143.496Z" fill="#616264"/>
<path d="M140.797 199.22H128.887C128.335 199.22 127.969 199.407 127.783 199.724C127.658 199.98 127.534 200.36 127.596 200.926V211.993H123.302V196.624H140.797V199.22Z" fill="#616264"/>
<path d="M109.48 196.631H116.97C117.647 196.631 118.199 196.887 118.627 197.329C119.118 197.833 119.304 198.406 119.304 199.096V209.535C119.304 210.232 119.118 210.799 118.627 211.24C118.199 211.744 117.647 212 116.97 212H101.989C101.312 212 100.697 211.744 100.269 211.303C99.8413 210.799 99.5928 210.226 99.5928 209.528V199.089C99.5928 198.392 99.8413 197.826 100.269 197.322C100.697 196.88 101.312 196.624 101.989 196.624H109.48V196.631ZM109.48 199.22H105.427C104.384 199.22 103.894 199.724 103.894 200.801V207.823C103.894 208.831 104.384 209.342 105.427 209.342H113.47C113.96 209.342 114.326 209.218 114.637 208.962C114.879 208.644 115.065 208.265 115.065 207.823V200.801C115.065 199.724 114.513 199.22 113.47 199.22H109.48Z" fill="#616264"/>
<path d="M97.8319 212.001L89.9129 197.012C89.7886 196.757 89.6091 196.633 89.3606 196.633H83.5266C83.2781 196.633 83.0986 196.757 82.9121 197.012C82.7879 197.206 80.1505 202.197 74.9932 212.001H79.4739C79.5361 211.815 81.4968 207.831 85.4252 200.043C85.6047 199.601 85.8533 199.346 86.0397 199.346H86.8337C87.0201 199.346 87.1996 199.601 87.4481 200.043L93.2821 212.001H97.825H97.8319Z" fill="#616264"/>
<path d="M192.544 178.729H200.035C200.712 178.729 201.264 178.984 201.754 179.426C202.182 179.93 202.431 180.503 202.431 181.193V191.632C202.431 192.33 202.182 192.896 201.754 193.338C201.264 193.842 200.712 194.097 200.035 194.097H185.053C184.377 194.097 183.824 193.842 183.396 193.4C182.906 192.896 182.72 192.323 182.72 191.626V181.187C182.72 180.489 182.906 179.923 183.396 179.419C183.824 178.977 184.377 178.722 185.053 178.722H192.544V178.729ZM192.544 181.318H188.492C187.449 181.318 186.959 181.822 186.959 182.899V189.92C186.959 190.935 187.449 191.439 188.492 191.439H196.597C197.025 191.439 197.398 191.315 197.702 191.059C198.005 190.742 198.13 190.362 198.13 189.92V182.899C198.13 181.822 197.64 181.318 196.597 181.318H192.544Z" fill="#5C8BC3"/>
<path d="M179.785 194.097H175.794V182.333C175.794 181.891 175.608 181.635 175.304 181.635H174.752C174.566 181.635 174.324 181.891 174.075 182.333L167.447 192.682C167.323 192.937 167.144 193.061 166.895 193.061H164.251C163.947 193.061 163.761 192.937 163.636 192.682L157.002 182.333C156.698 181.891 156.512 181.635 156.325 181.635H155.773C155.407 181.635 155.283 181.891 155.283 182.333V194.097H150.988V178.729H158.907L164.679 187.959C164.865 188.401 165.107 188.594 165.542 188.594C165.977 188.594 166.281 188.408 166.467 187.959L172.177 178.729H179.792V194.097H179.785Z" fill="#5C8BC3"/>
<path d="M138.236 185.308H142.593C143.456 185.308 143.884 184.866 143.884 184.045V182.588C143.884 181.766 143.456 181.325 142.593 181.325H133.265C132.837 181.325 132.651 181.58 132.651 182.022V184.611C132.651 185.053 132.837 185.308 133.265 185.308H138.236ZM138.236 187.897H133.265C132.837 187.897 132.651 188.084 132.651 188.533V194.097H128.356V178.729H145.665C146.342 178.729 146.956 178.984 147.384 179.426C147.812 179.93 148.061 180.503 148.061 181.262V185.439C148.061 186.137 147.812 186.703 147.384 187.207C146.956 187.649 146.342 187.904 145.665 187.904H138.236V187.897Z" fill="#5C8BC3"/>
<path d="M124.435 194.097H106.939V178.729H124.435V181.318H112.525C111.973 181.318 111.607 181.504 111.42 181.822C111.296 182.077 111.296 184.224 111.42 184.48C111.607 184.86 111.973 185.053 112.525 185.053H123.392V187.649H112.525C111.973 187.649 111.607 187.835 111.42 188.153C111.296 188.408 111.234 190.618 111.358 190.873C111.545 191.253 111.91 191.446 112.525 191.446H124.435V194.104V194.097Z" fill="#5C8BC3"/>
<path d="M103.011 181.512H96.7209C95.7405 181.512 95.3124 181.892 95.3124 182.714V194.099H91.1976V182.714C91.1976 181.892 90.7695 181.512 89.9065 181.512H83.5547V178.73H103.017V181.512H103.011Z" fill="#5C8BC3"/>
</g>
<defs>
<clipPath id="clip0_303_532">
<rect width="137" height="137" fill="white" transform="translate(75 75)"/>
</clipPath>
</defs>
</svg>
