<svg width="22" height="16" viewBox="0 0 22 16" fill="none" xmlns="http://www.w3.org/2000/svg">
<path fill-rule="evenodd" clip-rule="evenodd" d="M3.24986 1.01047C3.20884 1.019 3.08299 1.04509 2.97019 1.06849C2.11505 1.24575 1.36302 1.96729 1.09124 2.87126C1.01495 3.12506 1.01357 3.19786 1.00253 7.62608C0.994998 10.6485 1.00425 12.2097 1.03072 12.3872C1.15192 13.1996 1.67513 13.9418 2.38029 14.3017C2.9505 14.5926 2.32797 14.573 11.0062 14.573C19.6844 14.573 19.0479 14.5931 19.632 14.3004C20.2204 14.0056 20.7202 13.3761 20.9313 12.6636C20.9964 12.4441 21 12.1889 21 7.79979C21 3.40141 20.9965 3.1559 20.931 2.93599C20.699 2.15724 20.2246 1.57355 19.5709 1.26234C18.9867 0.984258 19.7605 1.00815 11.1181 1.0012C6.83159 0.997769 3.29088 1.00194 3.24986 1.01047ZM6.60598 2.29907L3.13799 2.31837L2.92689 2.42568C2.58058 2.60174 2.30321 2.99575 2.24157 3.39921C2.22166 3.52961 2.23154 3.56643 2.30512 3.63615C2.353 3.6815 4.17869 5.10501 6.36221 6.79947C9.07937 8.90804 10.3974 9.90801 10.5387 9.96819C10.8209 10.0884 11.1917 10.0885 11.4724 9.96834C11.6113 9.9089 12.9801 8.86901 15.7158 6.74454C17.937 5.0197 19.7629 3.58515 19.7734 3.55663C19.8037 3.47499 19.6931 3.08839 19.5845 2.89666C19.5302 2.80073 19.4031 2.65459 19.3021 2.5719C18.9486 2.28274 19.2617 2.3008 14.4183 2.28972C12.0289 2.28424 8.51338 2.28845 6.60598 2.29907ZM2.22438 7.80392C2.22438 10.7421 2.23147 11.1829 2.27845 11.1642C2.33051 11.1435 6.47845 7.9369 6.58241 7.83696C6.62451 7.79647 6.25571 7.49464 4.46616 6.10502C3.27418 5.17944 2.28214 4.42215 2.26163 4.42215C2.2371 4.42215 2.22438 5.57676 2.22438 7.80392ZM17.5879 6.06716C16.4292 6.96908 15.4591 7.72953 15.4322 7.75709C15.3921 7.7982 15.7664 8.10462 17.5288 9.47382C18.7089 10.3905 19.6999 11.1507 19.7312 11.1631C19.7819 11.1833 19.7881 10.8192 19.7881 7.80392C19.7881 5.12285 19.7784 4.42269 19.7415 4.42474C19.7158 4.42617 18.7467 5.16527 17.5879 6.06716ZM4.68229 10.0999L2.24303 11.9947L2.24944 12.1698C2.26357 12.5546 2.56961 12.9913 2.96735 13.1942L3.13799 13.2812H11.0062H18.8745L19.0742 13.1724C19.3441 13.0252 19.5809 12.7645 19.6689 12.5177C19.7586 12.2661 19.7952 12.0587 19.7595 12.0041C19.7043 11.9197 14.9199 8.22792 14.8658 8.22799C14.835 8.22803 14.1722 8.72275 13.3928 9.32737C12.6094 9.93511 11.8894 10.465 11.7825 10.5125C11.1974 10.7723 10.6903 10.7592 10.1449 10.4701C10.0443 10.4169 9.33339 9.88543 8.56498 9.28919C7.79655 8.69295 7.15743 8.2051 7.14471 8.2051C7.13196 8.2051 6.02388 9.05777 4.68229 10.0999Z" fill="white" stroke="white"/>
</svg>
