<svg width="18" height="18" viewBox="0 0 18 18" fill="none" xmlns="http://www.w3.org/2000/svg">
<g clip-path="url(#clip0_402_36)">
<path fill-rule="evenodd" clip-rule="evenodd" d="M4.24799 0.135464C4.03439 0.169034 3.83916 0.256031 3.6254 0.412889C3.5805 0.445829 3.40331 0.595691 3.23165 0.745901C3.05998 0.896111 2.87397 1.0542 2.81829 1.09718C2.58376 1.27825 2.29279 1.55726 2.09119 1.79439C1.42559 2.57729 1.01126 3.50873 0.861564 4.55865C0.815371 4.88259 0.804729 5.04682 0.80519 5.42814C0.805719 5.87539 0.83516 6.20656 0.912504 6.63568C1.26522 8.59264 2.45312 10.7351 4.45124 13.0179C5.99206 14.7783 7.49338 16.0224 8.99115 16.7799C9.89428 17.2367 10.7778 17.5001 11.6945 17.5858C11.929 17.6077 12.503 17.6044 12.7408 17.5796C13.9338 17.4556 15.0112 16.9785 15.8402 16.2071C15.9175 16.1351 16.1225 15.9513 16.2958 15.7987C16.469 15.646 16.6491 15.4821 16.696 15.4345C17.0614 15.0635 17.1712 14.6595 17.0253 14.2233C16.9115 13.8829 16.6145 13.4861 16.1604 13.0678C16.0081 12.9275 15.2956 12.3118 15.0976 12.1493C14.5459 11.6967 14.0225 11.4084 13.5877 11.3176C13.259 11.249 12.9407 11.2742 12.6478 11.3921C12.4155 11.4856 12.2704 11.587 11.8593 11.9432C11.5461 12.2145 11.4508 12.3047 11.1628 12.6024C10.8945 12.8797 10.6606 13.0164 10.3684 13.0666C9.83072 13.159 9.16716 12.8833 8.38141 12.2411C8.05662 11.9757 7.5419 11.4776 7.18548 11.0838C5.38709 9.09698 4.72338 7.68238 5.18055 6.81063C5.30239 6.57831 5.45142 6.42987 5.81461 6.17912C5.96126 6.07787 6.10067 5.96463 6.38941 5.71219C6.85691 5.30347 6.97217 5.17715 7.10116 4.93212C7.28502 4.58289 7.32914 4.21552 7.24004 3.77596C7.16974 3.42915 6.99559 3.01111 6.7379 2.57064C6.59159 2.32054 6.02149 1.42844 5.88956 1.24314C5.35992 0.499244 4.90226 0.151957 4.42258 0.129952C4.36316 0.127229 4.28459 0.129704 4.24799 0.135464Z" fill="white"/>
</g>
<defs>
<clipPath id="clip0_402_36">
<rect width="18" height="18" fill="white"/>
</clipPath>
</defs>
</svg>
