<svg width="220" height="251" viewBox="0 0 220 251" fill="none" xmlns="http://www.w3.org/2000/svg">
<path fill-rule="evenodd" clip-rule="evenodd" d="M108.695 -3.48844C106.701 -3.3699 104.893 -2.65523 104.025 -1.64289C102.551 0.0763016 101.858 2.69606 99.9198 13.8838C98.8904 19.8218 97.9489 24.6535 97.8272 24.621C97.7055 24.5886 95.0544 21.0341 91.9362 16.7222C82.6916 3.93942 81.9893 3.21529 78.0801 2.4416C76.5111 2.13124 75.7931 2.17096 74.6741 2.63028C71.9702 3.74011 70.4715 6.53635 70.9957 9.4941C71.3226 11.34 72.5598 13.24 83.8685 29.2665L94.6182 44.5007L92.2782 58.0218C90.9695 65.5836 89.8087 71.5087 89.6445 71.465C89.483 71.422 82.2109 61.1574 73.4844 48.6552C64.7576 36.1529 57.1957 25.4869 56.6798 24.9527C55.9288 24.1752 55.2898 23.8614 53.4725 23.3773C50.618 22.6167 49.8001 22.684 47.8096 23.8432C44.4959 25.773 43.9468 27.5226 44.9495 32.962C45.576 36.3613 46.8833 46.6317 48.2424 58.832C48.5966 62.0104 49.3131 68.3293 49.8348 72.874C50.3564 77.4188 50.7252 81.1714 50.6543 81.2131C50.3446 81.3956 28.5287 62.061 27.3499 60.5595C26.7608 59.8098 26.5094 58.4393 25.9728 53.0588C24.8158 41.4554 23.2474 28.5441 22.5869 25.1857C21.8892 21.6383 21.1571 20.2596 19.1527 18.7182C16.647 16.7917 14.0767 16.7131 11.0944 18.4719C8.49802 20.0032 8.21221 20.7694 8.51728 25.3853C8.6576 27.5112 8.98358 31.1816 9.24187 33.5414C10.0041 40.514 10.3364 45.1906 10.0796 45.3346C9.78795 45.4979 5.81828 42.2316 -2.08336 35.3255C-12.5394 26.1876 -13.0434 25.888 -16.6566 26.6678C-19.9773 27.3848 -22.025 29.7092 -21.8326 32.5446C-21.6268 35.5838 -20.1679 37.1869 -7.68142 48.0974C-2.89353 52.2809 1.01361 55.7731 1.00138 55.8579C0.988808 55.9427 -1.57035 55.9677 -4.6863 55.9135C-22.0874 55.6103 -25.6682 55.8392 -27.2081 57.3537C-28.2796 58.4076 -29.0515 60.8284 -28.8601 62.5356C-28.6698 64.233 -26.4531 67.2418 -24.6304 68.2769C-23.4443 68.9502 -22.7475 69.0471 -16.9872 69.3399C-13.5015 69.5172 -6.57133 69.7462 -1.58718 69.8489C3.39698 69.9515 9.65733 70.1219 12.3251 70.2271L17.1754 70.4184L22.6962 74.9769C28.4545 79.7316 38.0037 87.9389 40.051 89.8933C41.204 90.9942 41.2148 91.0291 40.4204 91.0834C36.4991 91.3517 -8.9687 89.9751 -13.0271 89.4651C-14.1268 89.3272 -14.8684 89.5644 -16.7926 90.6701C-18.8393 91.8468 -19.2606 92.2517 -19.6817 93.4484C-20.3041 95.2153 -19.9567 97.719 -18.8214 99.6518C-17.9074 101.208 -15.8097 102.966 -14.4285 103.334C-12.5714 103.829 33.8816 128.203 34.4263 128.968C34.6542 129.288 19.3249 132.973 10.2383 134.781L5.86759 135.651L-0.370547 132.416C-3.80147 130.636 -9.85257 127.46 -13.8173 125.358C-17.7819 123.255 -23.3898 120.359 -26.2791 118.923C-32.3314 115.913 -33.1591 115.756 -35.8996 117.098C-39.7407 118.978 -40.4828 123.05 -37.6307 126.597C-36.2964 128.257 -31.287 131.175 -15.4782 139.502C-14.4645 140.036 -13.6549 140.558 -13.6788 140.662C-13.7031 140.766 -16.0395 141.387 -18.8705 142.043C-27.087 143.945 -35.4293 146.156 -38.0555 147.127C-41.5409 148.415 -42.9734 150.301 -42.5765 153.079C-42.28 155.153 -41.3234 156.754 -39.4371 158.333C-36.4028 160.874 -35.8367 160.857 -23.2887 157.853C-13.8114 155.584 -9.09808 154.624 -8.8874 154.92C-8.68454 155.205 -10.0711 158.271 -13.4279 164.961C-17.4149 172.907 -18.3879 175.354 -18.206 176.977C-17.902 179.69 -14.6122 183.07 -11.4561 183.911C-10.232 184.237 -7.99955 183.69 -6.65039 182.734C-4.67574 181.335 -2.61469 177.603 8.8765 154.621C10.1844 152.005 11.314 149.838 11.387 149.804C12.3302 149.368 34.7636 143.839 37.8975 143.27C39.5081 142.978 40.3099 143.038 39.9129 143.422C39.7814 143.549 37.5359 147.89 34.9236 153.067C26.6898 169.384 22.2777 177.901 19.9246 182.018C16.8965 187.317 16.6305 187.901 16.6324 189.235C16.635 190.967 18.0013 193.659 19.6559 195.192C20.8147 196.266 21.3821 196.558 23.2323 197.038C25.943 197.74 26.8631 197.578 29.5835 195.917C34.5197 192.904 72.0814 171.563 72.3312 171.629C72.4813 171.669 71.5508 177.788 70.2634 185.226L67.9229 198.75L53.0773 207.162C37.4887 215.995 35.7143 217.108 34.801 218.632C33.0532 221.548 34.0451 225.716 36.9733 227.761C38.2453 228.649 40.7516 229.356 42.3856 229.288C43.9964 229.221 47.0642 227.769 56.287 222.708C60.557 220.364 64.1505 218.474 64.2722 218.506C64.3939 218.539 63.6537 223.424 62.6277 229.363C60.0251 244.421 60.1115 245.822 63.8245 248.744C64.9216 249.608 66.22 250.422 66.7096 250.554C67.1989 250.686 68.6304 250.596 69.891 250.354C74.1393 249.538 74.7791 248.119 77.1973 234.151C78.1301 228.763 79.059 223.955 79.2617 223.467C79.6292 222.583 79.6441 222.599 85.0287 230.035C92.4185 240.24 94.5994 242.93 96.0806 243.667C97.8638 244.554 99.9983 245.067 101.311 244.924C102.787 244.763 104.762 243.463 105.543 242.139C106.494 240.526 106.563 237.68 105.693 235.851C105.293 235.008 100.01 227.295 93.953 218.71L82.9405 203.1L85.2426 189.527C86.5086 182.062 87.621 175.911 87.7143 175.859C87.8643 175.775 113.574 212.282 118.253 219.223C120.489 222.539 121.198 223.119 123.927 223.866C126.562 224.588 128.63 224.207 130.57 222.644C132.855 220.803 133.351 218.983 132.545 215.388C131.801 212.07 130.52 201.788 127.796 177.275C127.291 172.735 126.806 168.459 126.717 167.773C126.628 167.088 126.661 166.467 126.791 166.394C127.096 166.223 129.769 168.457 141.117 178.37L150.436 186.511L151.066 192.286C154.473 223.496 154.599 224.265 156.79 227.172C158.229 229.083 159.089 229.557 161.417 229.725C165.285 230.003 168.307 228.21 168.748 225.377C168.881 224.518 168.525 218.911 167.955 212.895C167.385 206.888 167.022 201.916 167.148 201.845C167.476 201.661 170.1 203.798 178.491 211.083C189.829 220.926 189.612 220.777 192.487 220.72C197.027 220.631 200.151 216.871 198.874 213.034C198.146 210.851 195.312 208 184.436 198.512C180.511 195.088 177.331 192.106 177.369 191.885C177.468 191.316 179.674 191.225 189.656 191.373C201.062 191.544 202.237 191.45 203.699 190.252C204.337 189.731 205.153 188.672 205.514 187.9C207.334 184.008 204.012 178.565 199.546 178.122C197.999 177.968 184.152 177.423 179.712 177.341C177.89 177.307 172.742 177.167 168.271 177.029L160.143 176.779L156.271 173.608C149.049 167.694 135.969 156.269 136.243 156.115C136.95 155.719 187.593 157.16 189.342 157.626C189.769 157.739 190.639 157.734 191.276 157.613C194.828 156.938 196.42 155.487 196.947 152.443C197.629 148.502 195.753 145.766 190.76 143.421C186.22 141.289 171.488 133.681 159.196 127.121C156.554 125.711 153.096 123.867 151.51 123.023C146.296 120.245 142.974 118.402 142.836 118.209C142.621 117.905 155.072 114.887 165.214 112.784L171.421 111.497L176.998 114.419C180.066 116.027 186.397 119.357 191.069 121.821C195.741 124.284 201.642 127.325 204.182 128.577C208.283 130.599 208.959 130.853 210.217 130.843C212.012 130.83 215.163 129.228 215.92 127.945C217.203 125.771 216.445 121.684 214.416 119.826C213.347 118.849 208.355 115.906 202.272 112.67C196.163 109.42 191.858 106.888 191.852 106.543C191.849 106.368 193.901 105.723 196.411 105.11C216.208 100.274 218.566 99.4121 219.686 96.5985C220.852 93.6685 218.082 88.9502 214.154 87.1762C212.801 86.5651 210.281 86.9924 197.343 90.0276C188.088 92.1989 186.35 92.5375 186.121 92.2149C186.027 92.084 187.834 88.0493 190.135 83.2493C196.493 69.9857 196.226 70.905 194.599 67.8936C191.613 62.3687 186.032 61.5846 182.363 66.1745C180.8 68.1284 179.058 71.2843 174.405 80.5904C172.888 83.6229 171.326 86.7392 170.933 87.5156C170.539 88.292 169.236 90.8911 168.037 93.2917C166.839 95.6919 165.818 97.6726 165.77 97.693C165.721 97.7131 160.431 98.9675 154.013 100.48C147.595 101.993 141.276 103.484 139.972 103.795C138.322 104.188 137.591 104.23 137.568 103.931C137.549 103.696 139.946 98.7625 142.893 92.9687C153.019 73.0629 155.551 68.2353 158.39 63.42C160.246 60.2727 160.641 59.3624 160.651 58.2075C160.667 56.5121 159.534 53.943 158.053 52.3128C157.111 51.2765 156.604 50.9999 154.377 50.3074C152.767 49.8071 151.426 49.5574 150.818 49.6448C150.283 49.7219 148.267 50.7505 146.34 51.9304C141.049 55.1691 105.289 75.6333 105.037 75.5661C104.916 75.5339 105.924 69.3628 107.276 61.852L109.733 48.1962L125.346 39.3453C135.294 33.7054 141.265 30.1132 141.806 29.4439C142.884 28.1068 143.55 25.6801 143.277 24.0823C143.005 22.4874 141.631 20.2955 140.341 19.3989C139.137 18.5619 136.965 17.9431 135.156 17.9222C133.383 17.9018 130.78 19.0954 121.274 24.2879L113.197 28.6997L114.886 17.4854C117.173 2.29059 117.078 1.11482 113.323 -1.72614C111.32 -3.24076 110.404 -3.59005 108.695 -3.48844ZM117.348 85.6771L101.471 94.465L100.018 103.779C99.2192 108.902 98.6555 113.23 98.7654 113.398C98.8753 113.565 103.034 112.738 108.006 111.56C115.563 109.77 117.145 109.282 117.641 108.589C119.194 106.42 133.412 77.9681 133.291 77.2726C133.255 77.0616 126.08 80.8436 117.348 85.6771ZM63.0492 59.1611C63.0263 59.2934 63.5058 63.8599 64.114 69.3089C64.7226 74.7579 65.5858 82.5399 66.0317 86.6024C66.4781 90.6647 66.9664 94.4764 67.1167 95.0731C67.3487 95.992 68.5459 97.163 74.9415 102.726C79.0944 106.339 82.6144 109.218 82.7638 109.125C82.9132 109.032 83.8236 104.814 84.7872 99.7516L86.5385 90.5477L80.3119 81.8757C67.4917 64.0206 63.1877 58.3572 63.0492 59.1611ZM121.083 122.998C119.339 123.36 105.055 127.063 104.277 127.355C103.617 127.604 103.718 127.759 105.8 129.672C111.423 134.843 119.138 141.484 119.691 141.632C120.028 141.721 123.827 141.862 128.135 141.944C132.443 142.027 138.084 142.141 140.671 142.199C152.58 142.466 158.807 142.505 158.84 142.314C158.866 142.166 154.289 139.557 149.767 137.14C147.654 136.011 144.701 134.428 143.205 133.621C139.368 131.553 122.62 122.864 122.375 122.814C122.263 122.791 121.682 122.874 121.083 122.998ZM46.522 105.139C35.9014 104.81 19.6741 104.612 18.8354 104.801C18.2347 104.937 20.2018 106.127 27.8028 110.224C32.486 112.749 48.7093 121.361 52.1637 123.157L54.4245 124.332L63.1588 122.279C67.9629 121.151 72.2958 120.071 72.7878 119.88L73.6821 119.533L70.9999 117.055C64.9759 111.491 58.2851 106.047 57.0872 105.735C56.4429 105.567 51.6886 105.299 46.522 105.139ZM94.1099 137.61C93.9789 137.683 93.1368 141.957 92.2384 147.108L90.6048 156.472L99.5714 168.907C109.27 182.358 113.874 188.39 114.123 187.972C114.21 187.826 113.879 184.153 113.387 179.811C112.895 175.469 112.118 168.5 111.66 164.325C110.774 156.238 110.151 151.202 110.02 151.081C109.976 151.04 106.722 148.228 102.789 144.832C98.8555 141.435 95.3472 138.391 94.9927 138.066C94.6379 137.742 94.2408 137.536 94.1099 137.61ZM69.2412 135.552C64.4252 136.701 60.3041 137.731 60.0834 137.842C59.8625 137.953 58.5614 140.254 57.1921 142.956C51.503 154.178 49.8428 157.485 46.9465 163.365C45.2722 166.764 43.9311 169.709 43.9659 169.91C44.0011 170.111 51.1966 166.287 59.9562 161.412L75.883 152.549L77.3151 143.078C78.319 136.441 78.6355 133.585 78.3724 133.535C78.1662 133.495 74.0572 134.403 69.2412 135.552Z" fill="white" fill-opacity="0.52"/>
</svg>
