<svg width="483" height="126" viewBox="0 0 483 126" fill="none" xmlns="http://www.w3.org/2000/svg">
<path d="M0.611237 113.125C0.128141 114.997 1.25379 116.906 3.12545 117.389L33.6258 125.261C35.4975 125.745 37.4064 124.619 37.8895 122.747C38.3726 120.876 37.2469 118.967 35.3753 118.484L8.26382 111.486L15.2616 84.3743C15.7447 82.5027 14.619 80.5938 12.7474 80.1107C10.8757 79.6276 8.96682 80.7532 8.48373 82.6249L0.611237 113.125ZM188.763 0.985142L2.22235 110.985L5.77798 117.015L192.318 7.01486L188.763 0.985142Z" fill="white"/>
<path d="M481.929 113.125C482.412 114.997 481.287 116.906 479.415 117.389L448.915 125.261C447.043 125.745 445.134 124.619 444.651 122.747C444.168 120.876 445.294 118.967 447.165 118.484L474.277 111.486L467.279 84.3743C466.796 82.5027 467.921 80.5938 469.793 80.1107C471.665 79.6276 473.574 80.7532 474.057 82.6249L481.929 113.125ZM293.778 0.985142L480.318 110.985L476.763 117.015L290.222 7.01486L293.778 0.985142Z" fill="white"/>
</svg>
